<svg height="512pt" viewBox="0 0 512 512" width="512pt" xmlns="http://www.w3.org/2000/svg"><g fill="#515be0"><path d="m16 96c-8.835938 0-16-7.164062-16-16v-64c0-8.835938 7.164062-16 16-16h64c8.835938 0 16 7.164062 16 16s-7.164062 16-16 16h-48v48c0 8.835938-7.164062 16-16 16zm0 0"/><path d="m496 96c-8.835938 0-16-7.164062-16-16v-48h-48c-8.835938 0-16-7.164062-16-16s7.164062-16 16-16h64c8.835938 0 16 7.164062 16 16v64c0 8.835938-7.164062 16-16 16zm0 0"/><path d="m496 512h-64c-8.835938 0-16-7.164062-16-16s7.164062-16 16-16h48v-48c0-8.835938 7.164062-16 16-16s16 7.164062 16 16v64c0 8.835938-7.164062 16-16 16zm0 0"/><path d="m80 512h-64c-8.835938 0-16-7.164062-16-16v-64c0-8.835938 7.164062-16 16-16s16 7.164062 16 16v48h48c8.835938 0 16 7.164062 16 16s-7.164062 16-16 16zm0 0"/><path d="m288 32h-64c-8.835938 0-16-7.164062-16-16s7.164062-16 16-16h64c8.835938 0 16 7.164062 16 16s-7.164062 16-16 16zm0 0"/><path d="m288 512h-64c-8.835938 0-16-7.164062-16-16s7.164062-16 16-16h64c8.835938 0 16 7.164062 16 16s-7.164062 16-16 16zm0 0"/><path d="m16 304c-8.835938 0-16-7.164062-16-16v-64c0-8.835938 7.164062-16 16-16s16 7.164062 16 16v64c0 8.835938-7.164062 16-16 16zm0 0"/><path d="m496 304c-8.835938 0-16-7.164062-16-16v-64c0-8.835938 7.164062-16 16-16s16 7.164062 16 16v64c0 8.835938-7.164062 16-16 16zm0 0"/><path d="m320 112v-16c0-8.835938-7.164062-16-16-16s-16 7.164062-16 16v9.375l-10.398438 10.449219c10.375 3.71875 19.613282 10.058593 26.824219 18.398437l10.925781-10.917968c2.984376-3.003907 4.65625-7.070313 4.648438-11.304688zm0 0"/><path d="m234.441406 115.824219-10.441406-10.449219v-9.375c0-8.835938-7.164062-16-16-16s-16 7.164062-16 16v16c0 4.242188 1.6875 8.3125 4.6875 11.3125l10.929688 10.917969c7.207031-8.34375 16.445312-14.683594 26.824218-18.40625zm0 0"/><path d="m145.28125 272h-17.28125c-8.835938 0-16 7.164062-16 16s7.164062 16 16 16h17.28125c-1.707031-10.597656-1.707031-21.402344 0-32zm0 0"/><path d="m178.480469 207.351562-18.480469-9.238281v-38.113281c0-8.835938-7.164062-16-16-16s-16 7.164062-16 16v48c0 6.058594 3.421875 11.601562 8.839844 14.3125l21.601562 10.816406c5.386719-9.523437 12.136719-18.207031 20.039063-25.777344zm0 0"/><path d="m158.472656 342.871094-21.601562 10.816406c-5.429688 2.703125-8.867188 8.246094-8.871094 14.3125v48c0 8.835938 7.164062 16 16 16s16-7.164062 16-16v-38.113281l18.480469-9.238281c-7.890625-7.574219-14.628907-16.257813-20.007813-25.777344zm0 0"/></g><path d="m384 272h-17.28125c1.707031 10.597656 1.707031 21.402344 0 32h17.28125c8.835938 0 16-7.164062 16-16s-7.164062-16-16-16zm0 0" fill="#57a4ff"/><path d="m353.527344 233.128906 21.601562-10.816406c5.429688-2.703125 8.867188-8.246094 8.871094-14.3125v-48c0-8.835938-7.164062-16-16-16s-16 7.164062-16 16v38.113281l-18.480469 9.238281c7.890625 7.574219 14.628907 16.257813 20.007813 25.777344zm0 0" fill="#57a4ff"/><path d="m333.519531 368.648438 18.480469 9.238281v38.113281c0 8.835938 7.164062 16 16 16s16-7.164062 16-16v-48c0-6.0625-3.425781-11.601562-8.847656-14.3125l-21.601563-10.816406c-5.382812 9.523437-12.132812 18.207031-20.03125 25.777344zm0 0" fill="#57a4ff"/><path d="m256 176v224c61.855469 0 112-50.144531 112-112s-50.144531-112-112-112zm0 0" fill="#515be0"/><path d="m144 288c.066406 61.828125 50.171875 111.933594 112 112v-224c-61.828125.066406-111.933594 50.171875-112 112zm0 0" fill="#57a4ff"/><path d="m256 176c22.90625-.003906 45.253906 7.054688 64 20.214844v-20.214844c0-35.347656-28.652344-64-64-64s-64 28.652344-64 64v20.214844c18.746094-13.160156 41.09375-20.21875 64-20.214844zm0 0" fill="#9bc9ff"/></svg>